<?xml version="1.0" standalone="no"?>
<!DOCTYPE svg PUBLIC "-//W3C//DTD SVG 20010904//EN"
 "http://www.w3.org/TR/2001/REC-SVG-20010904/DTD/svg10.dtd">
<svg version="1.0" xmlns="http://www.w3.org/2000/svg"
 width="1200.000000pt" height="500.000000pt" viewBox="0 0 1200.000000 500.000000"
 preserveAspectRatio="xMidYMid meet">
<metadata>
Created by potrace 1.15, written by Peter Selinger 2001-2017
</metadata>
<g transform="translate(0.000000,500.000000) scale(0.100000,-0.100000)"
fill="#000000" stroke="none">
<path d="M0 2500 l0 -2500 1688 1 c1415 1 1675 3 1615 14 -214 39 -388 146
-457 284 -39 76 -45 167 -16 244 27 73 103 151 185 192 56 28 68 30 170 30
130 -1 176 -17 254 -90 193 -181 63 -440 -225 -448 -66 -2 -72 -22 -19 -62
121 -93 395 -91 581 3 163 83 247 234 230 418 -6 62 -136 587 -149 600 -2 3
-36 -1 -73 -8 -104 -20 -408 -17 -514 5 -261 52 -474 163 -650 336 -191 188
-287 399 -297 651 -5 108 -2 138 17 214 51 206 165 381 392 602 56 56 135 128
173 160 51 43 334 266 394 310 2 2 -11 58 -28 126 -46 183 -64 314 -64 483 -1
216 39 381 141 579 86 167 195 281 320 332 l57 24 -1862 0 -1863 0 0 -2500z"/>
<path d="M3765 4986 c119 -52 287 -371 345 -656 55 -268 -13 -558 -195 -835
-91 -138 -179 -233 -364 -392 l-34 -30 59 -239 60 -239 135 -1 c258 -3 440
-74 599 -234 85 -85 137 -169 171 -272 l22 -71 91 269 c62 183 105 295 136
349 81 143 188 235 271 235 41 0 91 -29 115 -66 l18 -26 23 52 c22 50 23 51
60 48 33 -3 40 -7 51 -38 19 -53 10 -182 -39 -607 -10 -95 -20 -220 -21 -278
-1 -95 1 -109 19 -127 34 -34 75 -17 136 57 91 110 207 341 209 415 1 16 4 27
8 25 7 -4 25 43 100 268 28 81 50 157 50 168 0 10 4 27 9 37 6 9 40 114 77
232 83 268 118 345 171 388 106 84 206 69 280 -42 45 -66 64 -134 70 -246 9
-151 -30 -323 -128 -569 -22 -56 -29 -86 -22 -88 41 -14 96 -69 121 -121 15
-31 28 -59 29 -61 5 -8 63 52 99 100 91 124 220 453 349 889 119 402 165 523
218 578 64 67 152 90 216 57 43 -22 96 -88 121 -153 32 -80 39 -265 15 -383
-20 -101 -65 -244 -112 -358 -27 -66 -31 -86 -21 -92 7 -5 16 -9 20 -9 21 0
85 -72 108 -122 l28 -58 63 68 c42 45 88 111 133 193 38 68 89 152 113 186 23
35 44 73 44 85 1 18 2 19 6 5 4 -15 8 -14 31 11 27 28 27 31 24 148 -5 182 21
336 89 531 62 178 147 299 237 341 68 31 113 24 158 -24 74 -78 83 -219 25
-394 -52 -155 -178 -376 -281 -492 -37 -42 -41 -52 -35 -80 21 -97 106 -208
160 -208 42 0 148 41 179 69 79 73 161 223 230 421 72 205 185 626 186 688 0
12 -12 40 -26 62 -25 37 -26 46 -21 118 6 80 43 214 71 257 18 28 57 33 76 11
6 -8 15 -40 19 -70 4 -31 10 -58 12 -60 3 -3 24 0 47 6 81 20 148 -12 196 -96
58 -100 58 -253 2 -601 -63 -389 -59 -428 36 -379 27 14 32 14 46 1 25 -26 8
-60 -43 -85 -56 -27 -90 -28 -132 -2 -69 41 -105 164 -104 349 0 137 9 203 57
453 20 103 34 194 30 203 -11 29 -47 15 -105 -42 l-58 -58 -58 -230 c-82 -327
-186 -639 -267 -800 -66 -130 -121 -196 -213 -253 -158 -98 -254 -118 -339
-68 -52 30 -111 111 -135 184 -8 23 -17 42 -21 42 -6 0 -46 -50 -65 -82 -13
-21 -83 -144 -105 -183 -89 -158 -178 -269 -225 -281 -20 -5 -21 -10 -22 -172
0 -176 -16 -330 -59 -559 -65 -353 -152 -595 -256 -708 -232 -254 -419 40
-333 525 64 366 224 682 438 870 47 41 48 44 41 84 -7 45 -18 72 -41 98 -14
16 -20 12 -70 -52 -110 -142 -233 -199 -272 -129 -21 38 -3 90 56 164 57 70
126 125 184 146 49 18 53 27 94 225 27 131 34 309 14 393 -15 67 -56 147 -85
166 -79 51 -121 -30 -264 -512 -142 -477 -190 -615 -271 -774 -57 -114 -141
-212 -192 -224 -21 -6 -22 -9 -18 -142 4 -157 -8 -289 -49 -528 -77 -460 -189
-740 -331 -828 -119 -73 -202 -31 -261 135 -20 55 -22 83 -22 223 -1 136 3
179 26 286 71 329 188 564 380 763 60 62 88 99 88 115 0 37 -21 99 -40 116
-16 14 -21 11 -59 -39 -111 -144 -227 -210 -274 -158 -21 23 -22 74 -2 112 41
79 165 190 236 211 35 11 40 17 53 63 94 338 86 593 -22 709 -35 36 -65 35
-96 -6 -27 -36 -94 -196 -121 -292 -15 -53 -113 -380 -165 -550 -80 -261 -134
-387 -226 -526 -24 -37 -60 -78 -79 -93 -42 -32 -153 -86 -178 -86 -34 0 -76
30 -101 73 -26 45 -55 168 -57 239 l-1 43 -18 -55 c-10 -30 -35 -108 -55 -172
-38 -123 -94 -224 -138 -253 -31 -20 -87 -30 -121 -21 -64 16 -136 124 -167
251 -7 28 -16 54 -20 59 -4 4 -21 -37 -38 -91 -56 -182 -203 -453 -275 -508
-42 -32 -64 -32 -72 1 -6 21 1 34 42 76 42 43 44 47 14 26 -48 -35 -175 -102
-233 -124 -27 -9 -51 -23 -53 -29 -3 -6 27 -141 66 -301 39 -159 74 -319 77
-355 7 -83 -11 -187 -44 -258 -73 -154 -271 -270 -513 -300 -36 -5 1846 -9
4183 -10 l4247 -1 0 2500 0 2500 -4132 0 c-3423 -1 -4128 -3 -4103 -14z m5651
-1396 c42 -45 53 -74 52 -146 -1 -37 -4 -50 -8 -34 -3 13 -26 40 -50 59 l-45
34 -3 -116 c-3 -112 -4 -117 -29 -137 -32 -25 -79 -26 -92 -2 -21 39 37 97 87
89 l22 -4 0 176 c1 166 2 174 17 146 8 -16 30 -46 49 -65z m-4616 -556 l0
-196 -29 -29 c-37 -36 -94 -41 -111 -9 -9 17 -6 25 19 50 29 29 43 34 89 30
l23 -2 -2 151 c-2 129 -5 151 -18 151 -9 0 -76 -9 -148 -21 l-133 -22 -1 -106
c-1 -58 -1 -133 0 -166 3 -79 -10 -112 -54 -130 -44 -19 -60 -19 -79 1 -22 22
-20 31 13 65 22 21 39 29 65 29 l36 0 0 170 c0 128 3 172 13 175 13 5 283 53
305 54 9 1 12 -44 12 -195z m2962 -392 c24 -56 129 -335 178 -477 53 -152 53
-153 42 -135 -6 8 -35 85 -65 170 -46 129 -111 301 -166 444 -8 19 -15 26 -22
19 -6 -6 57 -188 183 -524 154 -411 194 -508 198 -484 5 28 7 26 30 -35 14
-36 27 -69 29 -75 2 -5 -2 -4 -10 3 -7 6 -23 12 -35 12 -12 0 -25 8 -29 18 -8
21 -120 327 -277 756 -102 282 -118 333 -109 353 6 13 11 34 12 46 1 16 4 12
11 -13 6 -19 19 -55 30 -78z m-83 -89 c7 -16 12 -57 12 -93 -1 -36 1 -117 5
-182 l6 -116 42 -11 c56 -14 100 -60 98 -103 -3 -83 -7 -108 -19 -112 -19 -8
-16 -73 5 -94 9 -9 26 -43 36 -74 17 -48 18 -62 8 -96 -15 -51 -38 -70 -103
-88 -84 -22 -99 -19 -99 16 0 17 7 47 15 67 12 27 15 72 13 197 l-2 161 -6
-155 -5 -155 -30 0 -30 0 -6 75 -6 75 0 -80 c0 -44 6 -93 12 -110 7 -16 15
-47 19 -67 6 -31 4 -38 -9 -38 -10 0 -15 10 -15 30 0 23 -7 33 -30 45 -38 20
-53 19 -81 -5 -24 -20 -24 -20 -5 -35 12 -9 14 -15 7 -15 -7 0 -26 13 -42 29
-24 25 -29 37 -29 81 0 28 7 64 15 81 9 16 13 34 10 39 -3 6 1 10 9 10 32 0
51 90 22 107 -8 5 -16 35 -21 76 -7 67 -7 67 28 102 26 26 43 35 70 35 l34 0
6 83 c4 45 7 133 7 195 0 113 9 152 34 152 7 0 19 -12 25 -27z"/>
<path d="M3712 4550 c-145 -52 -259 -201 -329 -427 -24 -79 -27 -104 -27 -243
-1 -130 3 -170 23 -247 12 -51 25 -93 28 -93 12 0 131 92 199 152 245 219 374
446 374 661 0 108 -35 165 -122 201 -48 21 -81 20 -146 -4z"/>
<path d="M8149 4188 c-17 -17 -28 -37 -25 -44 3 -8 0 -13 -7 -11 -16 3 -61
-135 -82 -253 -20 -112 -32 -399 -18 -424 21 -37 181 322 224 501 46 191 -7
323 -92 231z"/>
<path d="M3290 2919 c-349 -246 -538 -438 -636 -644 -97 -206 -99 -386 -7
-575 28 -58 56 -94 123 -160 133 -132 296 -213 520 -261 85 -18 136 -22 265
-22 189 1 282 17 277 49 -2 10 -54 226 -116 479 -130 531 -101 483 -244 414
-157 -76 -252 -205 -252 -339 1 -123 71 -214 224 -289 51 -25 86 -48 86 -57 0
-69 -220 21 -349 142 -150 141 -203 309 -151 476 45 147 181 292 353 377 56
28 110 51 120 51 9 0 17 7 17 15 0 26 -102 425 -109 425 -3 0 -58 -37 -121
-81z"/>
<path d="M5048 2778 c-63 -51 -136 -266 -209 -618 -27 -129 -33 -178 -33 -292
-1 -136 -1 -138 26 -165 24 -23 30 -25 52 -15 52 23 118 181 186 447 73 282
100 472 80 560 -18 78 -62 114 -102 83z"/>
<path d="M7209 2503 c-41 -43 -94 -105 -116 -138 -134 -199 -226 -487 -248
-780 -9 -114 7 -222 43 -295 23 -47 31 -55 58 -58 43 -4 83 32 127 115 37 71
85 218 112 338 56 258 109 680 103 824 l-3 73 -76 -79z"/>
<path d="M3720 2255 c0 -3 52 -214 116 -470 92 -366 120 -465 132 -465 31 0
155 83 213 142 37 38 72 87 96 136 36 73 38 80 38 177 0 97 -2 104 -37 177
-72 145 -226 254 -412 292 -77 16 -146 21 -146 11z"/>
<path d="M6193 2068 c-195 -202 -313 -459 -368 -798 -51 -319 31 -583 147
-473 90 84 157 280 217 633 48 278 86 690 64 690 -5 0 -32 -24 -60 -52z"/>
</g>
</svg>
