<svg xmlns="http://www.w3.org/2000/svg" xmlns:xlink="http://www.w3.org/1999/xlink" xml:space="preserve" version="1.1" style="shape-rendering:geometricPrecision;text-rendering:geometricPrecision;image-rendering:optimizeQuality;" viewBox="0 0 846.66 1058.325" x="0px" y="0px" fill-rule="evenodd" clip-rule="evenodd"><defs><style type="text/css">
   
    .fil0 {fill:black}
   
  </style></defs><g><g><path class="fil0" d="M537.56 316.62l15.06 19.7 -15.06 -19.7zm32.88 43.06l16.98 22.23 -16.98 -22.23zm83.04 -100.14c-31.34,24.54 -66.77,50.4 -100.6,76.58l-0.26 0.2c-23.51,18.22 -46.24,36.57 -66.29,54.76 8.21,20.83 22.27,44.03 20.65,73.87 -3.9,71.76 -76.17,60.27 -108.98,94.7 -36.83,38.66 -39.64,93.12 -81.68,132.98 -148.59,140.84 -391.81,-226.59 -112.8,-266.27 44.87,-6.38 75.58,-8.85 104.48,-42.04 16.06,-18.47 35.69,-68.58 92.91,-57.56 30.72,5.91 49.14,27.27 67.3,40.49l69.35 -50.63 0.39 -0.3 102.09 -74.53c-7.7,-24.99 -9,-21.31 10.7,-36.14l69.94 -53c19.3,-14.97 26.94,1.54 36.61,14.47 23.37,31.33 19.74,27.13 -30.51,65.19 -54.31,41.12 -48.28,45.31 -73.3,27.23zm-0.4 159.2c-6.42,0 -11.61,5.19 -11.61,11.61 0,6.4 5.19,11.6 11.61,11.6 11.84,-0.1 11.86,3.28 11.72,11.75 0,6.4 5.21,11.61 11.62,11.61 6.43,0 11.62,-5.21 11.62,-11.61 0,-10.92 4.08,-11.88 11.74,-11.75 6.4,0 11.6,-5.2 11.6,-11.6 0,-6.42 -5.2,-11.61 -11.6,-11.61 -7.14,0.12 -11.54,-0.52 -11.74,-11.74 0,-6.42 -5.19,-11.62 -11.62,-11.62 -6.41,0 -11.62,5.2 -11.62,11.62 0.32,11.53 -7.98,11.77 -11.72,11.74zm-488.84 -203.83c-8.78,0 -15.89,7.12 -15.89,15.89 0,8.78 7.11,15.89 15.89,15.89 16.21,-0.15 16.22,4.47 16.05,16.06 0,8.77 7.13,15.88 15.9,15.88 8.77,0 15.9,-7.11 15.9,-15.88 0,-14.94 5.58,-16.25 16.03,-16.06 8.78,0 15.9,-7.11 15.9,-15.89 0,-8.77 -7.12,-15.89 -15.9,-15.89 -9.74,0.19 -15.77,-0.7 -16.03,-16.06 0,-8.78 -7.13,-15.88 -15.9,-15.88 -8.77,0 -15.9,7.1 -15.9,15.88 0.43,15.8 -10.91,16.14 -16.05,16.06zm310.43 442.91c-7.72,0 -13.99,6.27 -13.99,14.01 0,7.73 6.27,14 13.99,14 14.29,-0.12 14.31,3.95 14.17,14.15 0,7.74 6.27,14.01 14,14.01 7.73,0 14.01,-6.27 14.01,-14.01 0,-13.17 4.94,-14.31 14.15,-14.15 7.73,0 14,-6.27 14,-14 0,-7.74 -6.27,-14.01 -14,-14.01 -8.6,0.17 -13.9,-0.6 -14.15,-14.15 0,-7.73 -6.28,-14 -14.01,-14 -7.73,0 -14,6.27 -14,14 0.37,13.91 -9.65,14.22 -14.17,14.15zm199.05 -437c-3.93,2.25 -8.98,0.83 -11.24,-3.16 -2.28,-3.99 -0.93,-9.04 3,-11.28 3.94,-2.25 8.97,-0.83 11.25,3.17 2.28,3.98 0.93,9.03 -3.01,11.27zm28.54 -18.93c-3.95,2.24 -8.97,0.83 -11.25,-3.16 -2.27,-3.99 -0.92,-9.03 3.01,-11.29 3.93,-2.24 8.97,-0.82 11.25,3.16 2.26,4 0.92,9.05 -3.01,11.29zm31.54 -23.01c-3.95,2.23 -8.97,0.82 -11.26,-3.17 -2.27,-4 -0.93,-9.05 3,-11.3 3.94,-2.23 8.98,-0.81 11.25,3.17 2.28,4 0.93,9.05 -2.99,11.3zm-401.4 433.53c-3.94,2.23 -8.98,0.83 -11.25,-3.16 -2.28,-4 -0.92,-9.05 3.01,-11.29 3.93,-2.24 8.97,-0.83 11.24,3.16 2.27,3.99 0.93,9.05 -3,11.29zm4.14 -40.07c-3.93,2.24 -8.96,0.83 -11.24,-3.17 -2.28,-3.99 -0.94,-9.05 3,-11.29 3.94,-2.23 8.97,-0.82 11.26,3.17 2.27,3.99 0.92,9.04 -3.02,11.29zm-13.23 -36.02c-3.93,2.25 -8.96,0.84 -11.24,-3.16 -2.28,-3.98 -0.93,-9.05 3.01,-11.29 3.92,-2.24 8.96,-0.83 11.24,3.17 2.27,3.98 0.92,9.05 -3.01,11.28zm45.93 18.52c-3.94,2.24 -8.98,0.83 -11.24,-3.17 -2.28,-3.99 -0.92,-9.05 2.99,-11.29 3.94,-2.23 8.97,-0.82 11.26,3.18 2.28,3.98 0.92,9.03 -3.01,11.28zm92.34 -50.22c-3.93,2.24 -8.96,0.82 -11.24,-3.17 -2.27,-3.98 -0.93,-9.04 3,-11.28 3.94,-2.25 8.98,-0.83 11.24,3.17 2.28,3.99 0.94,9.03 -3,11.28zm10.59 -68.16c-3.94,2.23 -8.96,0.82 -11.23,-3.17 -2.28,-3.98 -0.94,-9.05 3,-11.29 3.93,-2.25 8.96,-0.83 11.24,3.17 2.28,3.99 0.93,9.04 -3.01,11.29zm4.48 36.47c-3.92,2.24 -8.97,0.82 -11.25,-3.17 -2.27,-3.98 -0.91,-9.03 3,-11.28 3.95,-2.24 8.98,-0.83 11.26,3.16 2.28,4.01 0.94,9.05 -3.01,11.29zm-361.89 105.37c3.94,-2.25 5.29,-7.3 3.02,-11.29 -2.29,-3.99 -7.32,-5.41 -11.26,-3.16 -3.91,2.25 -5.27,7.3 -3,11.28 2.27,4 7.32,5.41 11.24,3.17zm9.02 -74.87c-3.94,2.25 -8.97,0.83 -11.24,-3.16 -2.28,-3.99 -0.93,-9.03 3.01,-11.29 3.93,-2.24 8.97,-0.81 11.24,3.17 2.27,4 0.93,9.04 -3.01,11.28zm-14.61 38.21c-3.93,2.24 -8.97,0.81 -11.24,-3.17 -2.28,-3.98 -0.94,-9.04 3.01,-11.29 3.92,-2.24 8.97,-0.82 11.23,3.17 2.28,4 0.93,9.04 -3,11.29zm47.96 -62.81c-3.94,2.25 -8.97,0.82 -11.25,-3.17 -2.27,-3.98 -0.93,-9.03 3.01,-11.28 3.93,-2.25 8.97,-0.82 11.23,3.17 2.28,4 0.94,9.05 -2.99,11.28zm506.1 -348.86c-5.84,-7.63 -4.37,-18.52 3.24,-24.35 7.63,-5.81 18.53,-4.35 24.36,3.27l14.3 18.75c30.19,-21.86 54.06,-6.99 71.59,16.55 48.52,65.23 19.17,72.84 -46.72,122.74 -27.69,20.95 -41.48,39.07 -74.3,28.95 -13.27,7.91 -51.86,37.14 -85.13,63.69l-0.13 0.11c-20.3,16.21 -38.62,31.42 -47.93,40.15 7.7,27.58 21.01,52.86 9.85,89.67 -23.74,78.42 -93.04,58.51 -123.35,102.03 -15.47,22.2 -25,54.48 -38.99,78.63 -160.11,276.15 -509.34,-189.31 -201.91,-266.61 27.3,-6.87 62.64,-7.64 87.45,-16.83 32.56,-12.05 33.41,-31.98 56.19,-55.97 16.53,-17.42 40.21,-34.34 73.85,-34.74 41.6,-0.5 61.27,21.54 84.05,33.82 41.84,-29.96 84.55,-60.3 125.92,-90.77 18.59,-13.69 4.18,-21.97 18.67,-40.38 2.01,-2.54 7.87,-7.68 15.73,-14.06l-14.42 -18.89c-5.81,-7.62 -4.37,-18.52 3.26,-24.33 7.62,-5.85 18.52,-4.37 24.34,3.26l14.2 18.56c6.71,-5.11 13.52,-10.24 19.85,-14.95l-13.97 -18.3zm-510.54 420.91c-5.92,-7.55 -4.63,-18.47 2.91,-24.41 7.56,-5.92 18.5,-4.62 24.43,2.94l70.32 89.3c5.93,7.54 4.61,18.48 -2.94,24.41 -7.54,5.94 -18.48,4.62 -24.4,-2.92l-70.32 -89.32zm220.31 -129.36c43.48,-3.61 48.79,53.37 16.31,67.56 3.42,-5.34 5.56,-11.98 5.72,-19.96 0.36,-18.35 -14.37,-35.94 -35.15,-36.22 -4.61,-0.06 -9.15,0.7 -13.42,2.18 5.54,-7.27 14.3,-12.55 26.54,-13.56zm4.32 -29.25c-34.24,-0.45 -66.52,24.36 -67.3,64.13 -1.66,85.85 127.99,86.11 129.71,0.2 0.68,-32.62 -25.52,-63.86 -62.41,-64.33z"/></g></g><text x="0" y="861.66" fill="#000000" font-size="5px" font-weight="bold" font-family="'Helvetica Neue', Helvetica, Arial-Unicode, Arial, Sans-serif">Created by Nikita Ryzhkov</text><text x="0" y="866.66" fill="#000000" font-size="5px" font-weight="bold" font-family="'Helvetica Neue', Helvetica, Arial-Unicode, Arial, Sans-serif">from the Noun Project</text></svg>